<svg id="Layer_1" data-name="Layer 1" xmlns="http://www.w3.org/2000/svg" width="6in" height="5.8in" viewBox="0 0 435.3 414.8"><title>Artboard 1</title><path d="M129.1,57.2s29.1-11.8,47.7-9.5c0,0-30.4,80.1,9.5,114.1,0,0,26.8,49.7-48.1,111.1,0,0-1.4,14.2-8.9,21.4,0,0-76.7-61.6-22.2-138.3l.3-7.2s-.9-6-9.2,2c0,0-21.6,28.6-23,69.7,0,0-8.8,5.7-13.8-10.6,0,0-52.2-111.8,60.8-158.9,0,0,1.8,3.9-2,18.7l-4.7,20.1S127.2,70.4,129.1,57.2Z" fill="#231f20"/><path d="M38.6,132.1S16.5,59.4,127.1,26l9.1,8.8S54.3,52.2,38.6,132.1Z" fill="#231f20"/><path d="M41.8,142s2.7,100.2,54.7,132.3c0,0,14.7,24.8,26.2,25.4,0,0,51.1,41.8,23.6,115.1,0,0-15.3-88.2-54.6-29.3,0,0-1.4-83.8-75.6-92.4,0,0,25.8-58.9-16.1-111C0,182.1,37,203.6,41.8,142Z" fill="#231f20"/><path d="M117.3,315.7s-1.7,33.7,19.8,49.8C137.1,365.5,143,342.9,117.3,315.7Z" fill="#fff"/><path d="M100.8,308.9S89.8,336,98,363.5C98,363.5,111.8,340.7,100.8,308.9Z" fill="#fff"/><path d="M83.8,288.3s-25.5-8.9-45.6-4.9C38.2,283.4,54.9,298,83.8,288.3Z" fill="#fff"/><path d="M65.6,253.5S52.3,217.3,31.8,212C31.8,212,37.4,240.6,65.6,253.5Z" fill="#fff"/><path d="M182.1,45.4s33.2-27.7,66.4,2L220.6,5.7s-7.2-12.2-17.5-.9Z" fill="#231f20"/><path d="M259.3,42.2l30.3,4.5s-4.7-33.2-32.5-45.6C257.1,1.1,271.6,33.8,259.3,42.2Z" fill="#231f20"/><path d="M183.9,50.5s34.4-28.1,62.7,1.2c0,0,18.2,43.7,6.6,76.7,0,0-22.4,38.5-13.5,71.2,0,0,11.2,33.9,32.8,52.3,0,0,25.1,22.5,27.8,34.5,0,0-1.1,14.8-12.1,20.3,0,0-3.5,30.6-22.9,44.5,0,0,3.9-16.8,2.1-25.7,0,0-3.6,23.2-25.3,43.9,0,0,5.9-24.2,3.4-34.8a24.1,24.1,0,0,1-9.9,15.1s3.1-11.9-3.5-17.5c0,0-13.2-10.3-12.5-18.5,0,0-5.9,12.9-13.4,13.7a36.3,36.3,0,0,0-3.6,22.6s-8.4-3.1-11.8-11.8c0,0-.8,20.8,9.2,35.4,0,0-26.4-23.6-31.4-49,0,0,.2,17.9,8.7,34.6,0,0-22.5-17.4-28.8-46.3,0,0-21.1-11.8-9.4-26.1,0,0,6-14.9,12-18.4,0,0,37.1-42.8,40.1-53.6,0,0,12.7-27.8.8-53.2,0,0-21.2-26.4-20.5-41.5C171.5,120.1,169.2,86.9,183.9,50.5Z" fill="#231f20"/><path d="M191.5,51.7s23.3-19.3,45.5-.5c0,0,31.9,43.6,3.2,95,0,0-20.1,37.5,4.8,73.5,0,0,9.9,26.1,42.3,55.6,0,0,15.4,12.1-.3,27.7,0,0-7.6,25-15.1,32.9,0,0,2.7-16.6-1.1-23.4,0,0-16.9,41-22.8,43.7,0,0,4.9-21.4-.4-30.5,0,0-3.6,1.4-6.3,13.1,0,0-2.4-14.6-17.7-23.7,0,0-3.4-2.5-1.2-7.8,0,0,6.1-22.6,3.6-29.3,0,0,17.8-11.6,22.1-27.8,0,0,4.9-14.1-6.6-15.8,0,0-31.8,2-35.4-2.6,0,0-20-1.9-8.7,19.4,0,0,22.3,16.8,23.4,26.2,0,0,1.8,17.6-3.9,32.6,0,0-2.6,10.3-12.9,12a26.9,26.9,0,0,0-5.1,19.2s-6.1-5.7-8.6-11.1c0,0-7.6,3.2-2.6,26.1a125,125,0,0,1-18.6-40.9s-9.3,2.6-1.5,28.8c0,0-10.7-11-16.4-35.8,0,0-14.6-5.4-7.4-22.7,0,0,19.3-27.1,35.3-43.2,0,0,20-20.1,23.2-50.2a61.6,61.6,0,0,0-17-50.2S163.2,120.8,191.5,51.7Z" fill="#fff" stroke="#231f20" stroke-miterlimit="10" stroke-width="0.39"/><circle cx="171.8" cy="283.2" r="4.1" fill="#231f20"/><circle cx="205.4" cy="284" r="4.1" fill="#231f20"/><circle cx="187.1" cy="303.9" r="4.1" fill="#231f20"/><circle cx="242.4" cy="284" r="4.1" fill="#231f20"/><circle cx="272.5" cy="284.2" r="4.1" fill="#231f20"/><circle cx="253.8" cy="303.2" r="4.1" fill="#231f20"/><path d="M176.8,196.3s-40.6-39.4-46-61.5c0,0-18.5,17.6-18.1,34.8,0,0-.8,14.9,19.5,21.4C132.2,191,150.5,197.7,176.8,196.3Z" fill="#fff"/><path d="M134.2,156.1l3.9,5.6,4.9,20.7,3-9.9L161.5,189s-22,.8-29.9-6.7C131.6,182.3,122.3,175.5,134.2,156.1Z" fill="#231f20"/><path d="M301.6,54s-30.4-11.8-49.1-9.6c0,0,20.5,40.9,4.6,84.8-2.6,7.2-43.9,73.6,41,140.9a67.1,67.1,0,0,0,8.3,17.1s71.7-57.8,17.2-134.4l-.3-7.2s.9-6,9.2,1.9c0,0,21.7,28.7,23.1,69.8,0,0,8.8,5.6,13.7-10.6,0,0,52.2-111.9-60.8-158.9,0,0-1.8,3.9,2,18.6l4.7,20.2S303.5,67.2,301.6,54Z" fill="#231f20"/><path d="M392.4,132.1S414.5,59.4,303.9,26l-9.1,8.8S376.7,52.2,392.4,132.1Z" fill="#231f20"/><path d="M393.5,142s-2.7,100.2-54.7,132.3c0,0-14.6,24.8-26.2,25.4,0,0-51.1,41.8-23.6,115.1,0,0,15.3-88.2,54.6-29.3,0,0,1.4-83.8,75.7-92.4,0,0-25.9-58.9,16-111C435.3,182.1,398.3,203.6,393.5,142Z" fill="#231f20"/><path d="M318,315.7s1.7,33.7-19.7,49.8C298.3,365.5,292.3,342.9,318,315.7Z" fill="#fff"/><path d="M334.5,308.9s11.1,27.1,2.8,54.6C337.3,363.5,323.5,340.7,334.5,308.9Z" fill="#fff"/><path d="M351.6,288.3s25.4-8.9,45.5-4.9C397.1,283.4,380.5,298,351.6,288.3Z" fill="#fff"/><path d="M369.7,253.5S383,217.3,403.5,212C403.5,212,397.9,240.6,369.7,253.5Z" fill="#fff"/><path d="M254.1,196.3s40.6-39.4,46.1-61.5c0,0,18.5,17.6,18.1,34.8,0,0,.8,14.9-19.5,21.4C298.8,191,280.4,197.7,254.1,196.3Z" fill="#fff"/><path d="M296.8,156.1l-3.9,5.6L288,182.4l-3-9.9L269.5,189s22,.8,29.9-6.7C299.4,182.3,308.7,175.5,296.8,156.1Z" fill="#231f20"/><path d="M172.1,42l-30.3,4.9s4.3-33.2,31.9-46C173.7.9,159.7,33.7,172.1,42Z" fill="#231f20"/><path d="M220.3,356.2a43,43,0,0,0,6,11.9s5.7,10.3-6,12.4c0,0-11.5-1.9-5.3-12.6C215,367.9,220.2,358.2,220.3,356.2Z" fill="#231f20"/><path d="M201.2,383.6a40.9,40.9,0,0,0,5.9,11.9s5.7,10.3-5.9,12.4c0,0-11.6-1.9-5.4-12.6C195.8,395.3,201.1,385.6,201.2,383.6Z" fill="#231f20"/><path d="M238.2,390.4a40.9,40.9,0,0,0,5.9,11.9s5.8,10.4-5.9,12.5c0,0-11.5-2-5.3-12.7C232.9,402.1,238.1,392.4,238.2,390.4Z" fill="#231f20"/></svg>